<svg xmlns="http://www.w3.org/2000/svg" viewBox="0 0 32 32" width="32" height="32">
  <defs>
    <linearGradient id="talosGrad" x1="0%" y1="0%" x2="100%" y2="100%">
      <stop offset="0%" stop-color="#3b82f6" />
      <stop offset="50%" stop-color="#2563eb" />
      <stop offset="100%" stop-color="#1d4ed8" />
    </linearGradient>
    <filter id="glow" x="-20%" y="-20%" width="140%" height="140%">
      <feDropShadow dx="0" dy="1" stdDeviation="1" flood-color="#000000" flood-opacity="0.15" />
    </filter>
  </defs>

  <!-- Background Badge -->
  <rect width="32" height="32" rx="8" fill="url(#talosGrad)" />

  <!-- Centered Talos Hexagon Icon -->
  <g transform="translate(6, 6)" filter="url(#glow)">
    <path
      d="M17.5 13.33V6.67a1.67 1.67 0 0 0-.83-1.44l-5.84-3.33a1.67 1.67 0 0 0-1.66 0L3.33 5.23A1.67 1.67 0 0 0 2.5 6.67v6.66a1.67 1.67 0 0 0 .83 1.44l5.84 3.34a1.67 1.67 0 0 0 1.66 0l5.84-3.34a1.67 1.67 0 0 0 .83-1.44z"
      fill="none"
      stroke="#ffffff"
      stroke-width="1.8"
      stroke-linecap="round"
      stroke-linejoin="round"
    />
  </g>
</svg>
